<svg xmlns="http://www.w3.org/2000/svg" xmlns:xlink="http://www.w3.org/1999/xlink" width="500" zoomAndPan="magnify" viewBox="0 0 375 374.999991" height="500" preserveAspectRatio="xMidYMid meet" version="1.0"><defs><clipPath id="id1"><path d="M 66.714844 86.316406 L 141.714844 86.316406 L 141.714844 236.316406 L 66.714844 236.316406 Z M 66.714844 86.316406 " clip-rule="nonzero"/></clipPath><clipPath id="id2"><path d="M 238.3125 86.316406 L 313.3125 86.316406 L 313.3125 236.316406 L 238.3125 236.316406 Z M 238.3125 86.316406 " clip-rule="nonzero"/></clipPath></defs><path fill="#b9e4dd" d="M 159.128906 135.648438 L 189.957031 186.125 L 218.527344 135.996094 C 225.179688 125.371094 225.757812 111.558594 218.769531 100.117188 C 208.839844 83.855469 187.4375 78.636719 170.964844 88.445312 C 154.496094 98.25 149.195312 119.375 159.128906 135.648438 Z M 159.128906 135.648438 " fill-opacity="1" fill-rule="nonzero"/><g clip-path="url(#id1)"><path fill="#b9e4dd" d="M 66.714844 199.578125 L 66.703125 199.578125 L 66.703125 123.117188 L 66.714844 123.117188 C 67.085938 102.777344 83.730469 86.40625 104.207031 86.40625 C 124.683594 86.40625 141.332031 102.777344 141.703125 123.117188 L 141.714844 123.117188 L 141.714844 199.578125 L 141.703125 199.578125 C 141.292969 219.882812 124.664062 236.214844 104.207031 236.214844 C 83.75 236.214844 67.121094 219.882812 66.714844 199.578125 Z M 66.714844 199.578125 " fill-opacity="1" fill-rule="nonzero"/></g><g clip-path="url(#id2)"><path fill="#b9e4dd" d="M 238.3125 199.578125 L 238.300781 199.578125 L 238.300781 123.117188 L 238.3125 123.117188 C 238.683594 102.777344 255.328125 86.40625 275.804688 86.40625 C 296.285156 86.40625 312.929688 102.777344 313.300781 123.117188 L 313.3125 123.117188 L 313.3125 199.578125 L 313.300781 199.578125 C 312.890625 219.882812 296.261719 236.214844 275.804688 236.214844 C 255.347656 236.214844 238.722656 219.882812 238.3125 199.578125 Z M 238.3125 199.578125 " fill-opacity="1" fill-rule="nonzero"/></g></svg>